<svg xmlns="http://www.w3.org/2000/svg" width="1200" height="760" viewBox="0 0 1200 760">
  <rect width="1200" height="760" fill="#f1f5f9"/>
  <rect x="0" y="0" width="245" height="760" fill="#fff" stroke="#dbe4ef"/>
  <text x="24" y="48" font-family="Arial" font-size="17" font-weight="700" fill="#00529c">BRI KC SUDIRMAN SEMANGGI</text>
  <text x="24" y="90" font-family="Arial" font-size="26" font-weight="700" fill="#0f172a">BRISpot Bad Data</text>
  <text x="24" y="124" font-family="Arial" font-size="26" font-weight="700" fill="#0f172a">Monitoring</text>
  <rect x="18" y="190" width="210" height="44" rx="8" fill="#00529c"/>
  <text x="56" y="218" font-family="Arial" font-size="16" font-weight="700" fill="#fff">Dashboard</text>
  <text x="56" y="276" font-family="Arial" font-size="16" fill="#334155">Bad Data Register</text>
  <text x="56" y="326" font-family="Arial" font-size="16" fill="#334155">Checklist Pre-screening</text>
  <text x="56" y="376" font-family="Arial" font-size="16" fill="#334155">Escalation Generator</text>
  <text x="56" y="426" font-family="Arial" font-size="16" fill="#334155">Reports</text>
  <text x="56" y="476" font-family="Arial" font-size="16" fill="#334155">Settings</text>

  <rect x="245" y="0" width="955" height="78" fill="#fff" stroke="#dbe4ef"/>
  <rect x="286" y="14" width="52" height="52" rx="8" fill="#00529c"/>
  <text x="294" y="34" font-family="Arial" font-size="16" font-weight="700" fill="#fff">BRI</text>
  <text x="292" y="54" font-family="Arial" font-size="12" font-weight="700" fill="#ff7a2b">SPOT</text>
  <text x="354" y="28" font-family="Arial" font-size="13" font-weight="700" fill="#00529c">QUICK-WIN BRANCH MONITORING TOOL</text>
  <text x="354" y="54" font-family="Arial" font-size="22" font-weight="700" fill="#0f172a">BRISpot Bad Data Monitoring &amp; Escalation Dashboard</text>
  <rect x="1032" y="20" width="125" height="38" rx="8" fill="#fff" stroke="#dbe4ef"/>
  <text x="1074" y="44" font-family="Arial" font-size="15" fill="#334155">Role</text>
  <text x="1110" y="44" font-family="Arial" font-size="15" font-weight="700" fill="#0f172a">Admin</text>

  <rect x="245" y="78" width="955" height="38" fill="#fff7ed" stroke="#facc15"/>
  <text x="286" y="103" font-family="Arial" font-size="14" fill="#92400e">Gunakan data dummy. Jangan memasukkan data nasabah asli.</text>

  <text x="286" y="160" font-family="Arial" font-size="15" font-weight="700" fill="#00529c">DASHBOARD</text>
  <text x="286" y="198" font-family="Arial" font-size="30" font-weight="700" fill="#0f172a">Monitoring Bad Data Consumer Credit Origination</text>
  <text x="286" y="228" font-family="Arial" font-size="16" fill="#475569">Pantau status, SLA, sumber masalah, dan kebutuhan eskalasi OPX/PO.</text>

  <g fill="#fff" stroke="#dbe4ef">
    <rect x="286" y="266" width="190" height="92" rx="8"/>
    <rect x="500" y="266" width="190" height="92" rx="8"/>
    <rect x="714" y="266" width="190" height="92" rx="8"/>
    <rect x="928" y="266" width="190" height="92" rx="8"/>
    <rect x="286" y="384" width="190" height="92" rx="8"/>
    <rect x="500" y="384" width="190" height="92" rx="8"/>
    <rect x="714" y="384" width="190" height="92" rx="8"/>
    <rect x="928" y="384" width="190" height="92" rx="8"/>
  </g>
  <text x="306" y="308" font-family="Arial" font-size="15" font-weight="700" fill="#64748b">Total kasus bad data</text>
  <text x="306" y="340" font-family="Arial" font-size="30" font-weight="700" fill="#0f172a">7</text>
  <text x="520" y="308" font-family="Arial" font-size="15" font-weight="700" fill="#64748b">Kasus Open</text>
  <text x="520" y="340" font-family="Arial" font-size="30" font-weight="700" fill="#0f172a">0</text>
  <text x="734" y="308" font-family="Arial" font-size="15" font-weight="700" fill="#64748b">In Progress</text>
  <text x="734" y="340" font-family="Arial" font-size="30" font-weight="700" fill="#0f172a">0</text>
  <text x="948" y="308" font-family="Arial" font-size="15" font-weight="700" fill="#64748b">Escalated</text>
  <text x="948" y="340" font-family="Arial" font-size="30" font-weight="700" fill="#0f172a">0</text>

  <rect x="286" y="520" width="832" height="122" rx="8" fill="#fff" stroke="#dbe4ef"/>
  <text x="314" y="560" font-family="Arial" font-size="20" font-weight="700" fill="#0f172a">Total Cases by Product</text>
  <rect x="314" y="585" width="240" height="50" rx="6" fill="#f8fafc" stroke="#dbe4ef"/>
  <rect x="574" y="585" width="240" height="50" rx="6" fill="#f8fafc" stroke="#dbe4ef"/>
  <text x="330" y="616" font-family="Arial" font-size="16" fill="#475569">Briguna: 4</text>
  <text x="590" y="616" font-family="Arial" font-size="16" fill="#475569">KPR: 3</text>

  <rect x="278" y="6" width="840" height="70" rx="6" fill="none" stroke="#dc2626" stroke-width="4"/>
  <text x="282" y="14" font-family="Arial" font-size="16" font-weight="700" fill="#dc2626">1</text>
  <rect x="278" y="255" width="850" height="236" rx="6" fill="none" stroke="#dc2626" stroke-width="4"/>
  <text x="282" y="272" font-family="Arial" font-size="16" font-weight="700" fill="#dc2626">2</text>
  <rect x="278" y="512" width="850" height="150" rx="6" fill="none" stroke="#dc2626" stroke-width="4"/>
  <text x="282" y="530" font-family="Arial" font-size="16" font-weight="700" fill="#dc2626">3</text>
</svg>
